# xmcd
#
# Track frame offsets: 
#        150
#        15680
#        31991
#        50475
#        66626
#
# Disc length: 1101 seconds
#
# Revision: 0
# Processed by: cddbd v1.5.1PL2 Copyright (c) Steve Scherf et al.
# Submitted via: ExactAudioCopy v0.95b4
#
DISCID=41044b05
DTITLE=the Rudies - Too Bad, So Sad, Jihad
DYEAR=2005
DGENRE=Desperado Rock
TTITLE0=Wicked bed O'Roses
TTITLE1=Today is...
TTITLE2=Friday on the Hill
TTITLE3=Entropy-Bop
TTITLE4=Man Down (tell me anything)
EXTD=the_rudies_band@hotmail.com\nProduced by: the Rudies and Darrick Uw
EXTD=ins\nEngineered and Mixed by: Darrick Uwins
EXTT0=
EXTT1=
EXTT2=
EXTT3=
EXTT4=
PLAYORDER=
